<?xml version="1.0" standalone="no"?>
<!DOCTYPE svg PUBLIC "-//W3C//DTD SVG 20010904//EN"
 "http://www.w3.org/TR/2001/REC-SVG-20010904/DTD/svg10.dtd">
<svg version="1.0" xmlns="http://www.w3.org/2000/svg"
 width="609.000000pt" height="1023.000000pt" viewBox="0 0 609.000000 1023.000000"
 preserveAspectRatio="xMidYMid meet">

<g transform="translate(0.000000,1023.000000) scale(0.100000,-0.100000)"
fill="#000000" stroke="none">
<path d="M3050 9050 l0 -240 -300 0 -300 0 0 144 0 145 54 15 c81 24 95 55 40
91 -20 13 -259 65 -301 65 -10 0 -13 -53 -13 -230 l0 -230 -395 0 -395 0 0
-50 0 -50 395 0 395 0 0 -203 c0 -167 3 -206 16 -225 25 -36 64 -28 136 26
l63 47 3 178 2 177 300 0 300 0 0 -184 c0 -189 8 -241 39 -249 26 -6 77 17
138 65 l53 40 0 164 0 164 491 0 c319 0 497 4 510 10 27 15 24 50 -8 84 -14
16 -87 74 -161 129 l-134 100 -112 -112 -111 -111 -238 0 -237 0 0 154 0 154
44 11 c44 11 76 33 76 52 0 10 -49 59 -59 59 -3 0 -69 11 -145 25 -77 14 -141
25 -143 25 -2 0 -3 -108 -3 -240z"/>
<path d="M573 9184 c-28 -12 -12 -43 36 -73 106 -64 217 -205 316 -399 56
-110 76 -127 142 -119 55 6 77 28 94 90 43 162 -100 321 -402 445 -132 54
-166 64 -186 56z"/>
<path d="M5080 8591 c0 -6 9 -11 19 -11 10 0 29 -8 41 -18 29 -24 29 -65 -1
-138 -25 -59 -22 -57 -129 -74 -90 -14 -95 -13 -129 16 l-31 26 0 -27 c0 -28
40 -75 63 -75 8 0 32 6 53 14 63 22 124 30 124 16 0 -22 -175 -373 -208 -419
-32 -45 -41 -91 -22 -121 8 -13 11 -13 24 0 12 13 126 259 222 480 39 91 38
90 110 90 92 0 98 -13 91 -173 -6 -137 -31 -236 -73 -287 -32 -38 -54 -38
-122 1 -30 17 -57 28 -60 25 -3 -3 -3 -7 -1 -9 64 -48 94 -77 105 -104 16 -36
28 -36 79 2 73 54 118 191 119 365 1 99 -2 120 -20 150 -28 48 -58 62 -121 56
-29 -2 -53 -3 -53 0 0 11 63 129 71 132 19 7 8 32 -26 58 -37 28 -125 46 -125
25z"/>
<path d="M1391 8493 c-15 -13 -116 -287 -344 -928 l-323 -910 -187 -3 -187 -2
0 -43 0 -43 118 -23 c64 -13 129 -30 143 -37 37 -19 76 -68 89 -112 15 -56 12
-328 -6 -534 -9 -101 -17 -208 -17 -238 0 -105 47 -194 114 -215 33 -11 105 4
133 26 35 28 55 69 67 137 7 45 2 107 -22 302 -17 134 -37 280 -45 323 -23
119 -32 260 -23 348 6 58 81 324 283 1003 152 509 276 934 276 946 0 26 -39
27 -69 3z"/>
<path d="M5510 8386 c0 -2 22 -21 50 -41 27 -20 65 -58 85 -85 42 -58 72 -137
57 -152 -5 -5 -43 -15 -85 -21 -105 -17 -111 -31 -9 -24 l84 6 29 -32 c40 -44
63 -30 67 41 4 63 -20 122 -73 181 -51 56 -205 152 -205 127z"/>
<path d="M1670 7772 c0 -413 3 -551 12 -560 28 -28 84 -8 171 60 l37 30 0 79
0 79 365 0 365 0 0 -113 c0 -63 -3 -155 -6 -205 l-7 -92 -556 -2 -556 -3 0
-50 0 -50 548 -3 548 -2 -7 -68 c-3 -37 -10 -103 -15 -147 -5 -44 -9 -85 -9
-92 0 -10 -127 -13 -635 -13 l-635 0 0 -50 0 -50 615 0 c338 0 615 -4 615 -8
0 -5 -9 -38 -21 -73 -145 -441 -545 -756 -1214 -954 -88 -27 -166 -52 -172
-58 -18 -14 -16 -46 4 -54 50 -19 518 78 703 147 331 122 586 311 746 552 58
87 127 233 155 330 l23 76 69 -106 c214 -329 488 -583 827 -765 89 -48 258
-122 346 -151 l52 -17 50 49 c34 33 85 66 151 98 55 27 100 52 101 55 0 3 -42
16 -92 28 -119 30 -353 107 -488 160 -253 101 -504 248 -670 393 -111 97 -250
257 -250 286 0 9 191 12 758 12 755 0 759 0 778 21 17 19 17 23 3 47 -8 15
-82 77 -164 139 l-150 112 -110 -109 -110 -110 -534 0 -533 0 6 38 c7 45 26
237 26 263 0 18 19 19 639 19 612 0 640 1 662 19 47 38 9 81 -204 228 l-68 47
-92 -92 -92 -92 -414 0 -413 0 6 78 c3 42 8 134 12 205 l6 127 384 0 384 0 0
-80 c0 -67 3 -83 21 -101 29 -29 79 -11 157 56 l42 37 0 317 0 317 45 12 c54
14 73 43 52 76 -15 22 -250 196 -265 196 -5 0 -30 -29 -56 -65 l-48 -65 -824
0 -825 0 -119 80 c-66 44 -122 80 -125 80 -3 0 -5 -247 -5 -548z m950 38 l0
-250 -365 0 -365 0 0 250 0 250 365 0 365 0 0 -250z m1000 0 l0 -250 -385 0
-385 0 0 250 0 250 385 0 385 0 0 -250z"/>
<path d="M347 8203 c-16 -16 -3 -39 55 -101 100 -107 191 -259 259 -429 34
-88 59 -119 99 -128 41 -9 96 18 115 56 25 47 17 168 -14 233 -52 106 -214
243 -398 335 -82 41 -104 47 -116 34z"/>
<path d="M5150 6943 c58 -51 51 -77 -96 -372 -70 -140 -145 -280 -166 -311
-41 -61 -49 -109 -23 -130 9 -7 17 -11 19 -9 3 2 31 58 65 124 33 66 74 137
91 158 44 52 112 90 163 90 62 0 74 -21 82 -150 8 -125 18 -167 48 -188 32
-22 131 -20 181 5 86 41 185 170 226 296 31 93 20 113 -18 32 -82 -178 -183
-282 -293 -303 -27 -5 -41 -2 -59 13 -21 17 -24 30 -31 128 -4 60 -13 121 -19
136 -31 66 -141 75 -230 20 l-50 -31 34 67 c37 72 153 283 176 319 13 20 13
27 -4 58 -22 40 -53 63 -99 71 l-32 6 35 -29z"/>
<path d="M2180 4620 l0 -340 -675 0 -675 0 0 61 c0 146 -67 128 -84 -22 -20
-187 -117 -395 -256 -554 -83 -93 -109 -173 -79 -239 35 -77 198 -68 276 16
77 82 143 343 143 563 l0 65 1485 0 c817 0 1485 -2 1485 -4 0 -3 -61 -107
-136 -231 -178 -296 -171 -306 82 -116 159 120 161 121 339 141 50 5 119 10
156 10 66 0 89 10 89 40 0 8 -91 106 -203 218 l-202 202 -75 -75 -74 -75 -688
0 -688 0 2 246 3 245 60 20 c99 33 119 71 57 103 -22 12 -300 66 -336 66 -3 0
-6 -153 -6 -340z"/>
<path d="M2940 3685 l-74 -75 -813 0 -813 0 0 -50 0 -50 790 0 c435 0 790 -3
790 -8 0 -9 -393 -402 -402 -402 -4 0 -41 20 -81 45 -41 25 -77 45 -81 45 -3
0 -6 -144 -6 -320 l0 -320 -935 0 -935 0 0 -55 0 -55 935 0 936 0 -3 -493 c-3
-547 -1 -526 -71 -564 -27 -15 -67 -18 -277 -21 -135 -2 -253 -8 -262 -13 -48
-26 -5 -47 182 -89 197 -45 220 -58 220 -130 0 -17 6 -46 14 -65 25 -60 92
-59 209 2 82 43 147 113 179 191 23 57 23 59 26 620 l3 562 940 0 c622 0 947
3 959 10 38 21 42 46 13 80 -22 27 -186 154 -321 249 l-34 24 -127 -127 -126
-126 -653 0 -652 0 2 256 3 256 228 133 c274 158 366 195 521 204 56 4 107 10
114 15 15 9 16 38 1 68 -9 19 -295 266 -318 276 -4 1 -40 -32 -81 -73z"/>
<path d="M5473 2927 c28 -29 59 -63 67 -76 19 -28 50 -19 50 14 0 30 -40 72
-92 95 -75 34 -82 25 -25 -33z"/>
<path d="M5000 2961 c0 -5 14 -12 30 -16 17 -4 35 -15 40 -25 6 -11 10 -141
10 -322 0 -295 1 -305 23 -348 39 -79 115 -109 235 -94 128 16 221 66 336 183
70 71 87 107 25 53 -61 -52 -165 -121 -220 -146 -119 -54 -269 -54 -320 0 -24
25 -24 27 -27 285 -3 209 0 270 12 320 9 33 16 64 16 69 0 4 -19 18 -43 29
-44 21 -117 29 -117 12z"/>
<path d="M5341 2868 c25 -24 53 -58 63 -75 26 -51 75 -41 62 12 -8 32 -64 73
-123 91 l-48 14 46 -42z"/>
</g>
</svg>
